<svg fill="none" height="32" viewBox="0 0 32 32" width="32" xmlns="http://www.w3.org/2000/svg"><g fill="#fff"><path d="m22.0522 0h-14.10441c-4.31119 0-7.94779 3.6366-7.94779 7.94779v14.10441c0 4.3034 3.6366 7.9478 7.94779 7.9478h14.10441c4.3034 0 7.9478-3.6366 7.9478-7.9478v-14.10441c-.0078-4.31119-3.6444-7.94779-7.9478-7.94779zm6.4203 22.0522c0 3.4815-2.9388 6.4203-6.4203 6.4203h-14.10441c-3.48152 0-6.42026-2.9388-6.42026-6.4203v-14.10441c0-3.48152 2.93874-6.42026 6.42026-6.42026h14.10441c3.4815 0 6.4203 2.93874 6.4203 6.42026z"/><path d="m19.0906 10.53c-.3102-.0465-.8917-.1008-2.016-.1008-.1318 0-.3024 0-.4498 0-.1783 0-.3256-.1318-.3411-.3101-.0155-.19388.1318-.35672.3256-.36447.0853 0 .1861-.00775.3102-.00775.7211-.01551 2.2099-.03877 2.2331-.55053v-3.35746c0-.34893-.2869-.63582-.6358-.63582l-2.7681-.00776c-1.4966 0-2.6519.48075-3.435 1.42673-.6359.77539-.9848 1.82993-.9848 2.97751v.37219c0 .08526-.031.17056-.093.23266l-.1396.1473c-.0465.0543-.1163.0853-.1861.1008-.2947.0543-.5118.3179-.5118.6281v3.7296c0 .2946.1939.5428.4653.6126.1085.031.2171.0853.2946.1705.1163.1164.1784.2714.1784.4343v7.7927c0 .535.4342.977.977.977h3.0705c.535 0 .977-.4342.977-.977v-7.8082c0-.1474.062-.2947.1628-.3955.1086-.1085.2482-.1628.3955-.1628h1.7291c.3334 0 .6048-.2481.6359-.5816l.3256-3.7374c.0078-.0465 0-.1008-.0077-.1473-.0621-.2481-.2637-.4187-.5118-.4575zm-.8762 1.7757-.1163 1.3414c-.0155.1396-.0775.2791-.1861.3722-.1086.093-.2404.1473-.3877.1473h-1.481c-.535 0-.977.4342-.977.977v7.909c0 .0931-.0388.1784-.1008.2404l-.1318.1318c-.062.0621-.1473.1008-.2404.1008h-1.5275c-.0931 0-.1783-.0387-.2404-.1008l-.1318-.1318c-.062-.062-.1008-.1473-.1008-.2404v-8.2424c0-.2947-.1938-.5428-.4652-.6126-.1086-.031-.2171-.0853-.2947-.1705-.1163-.1164-.1783-.2714-.1783-.4343v-1.3026c0-.1629.062-.3179.1783-.4343.0776-.0852.1861-.1395.2947-.1705.2714-.0776.4652-.318.4652-.6126v-1.47325c0-.93823.3024-3.12484 3.1326-3.12484l1.574.00776c.1474 0 .2947.06203.3955.16283.1085.10855.1628.24813.1628.39545v.96149c0 .14732-.062.29465-.1628.39545-.1086.10856-.2481.16283-.4032.16283l-.7366-.00775c-1.357 0-1.5043.86069-1.5043 1.22512v.95371c0 .535.4342.977.977.977h1.6206c.155 0 .3024.0621.4109.1784.1163.1163.1706.2714.1551.4187z"/></g></svg>