<svg width="25" height="25" viewBox="0 0 25 25" fill="none" xmlns="http://www.w3.org/2000/svg">
<path d="M1.0448 7.04588L7.04056 1.05704C7.08339 1.01426 7.14049 1 7.16904 1C7.19759 1 7.24043 1 7.29753 1.05704L10.3811 4.13701C10.4524 4.20831 10.4524 4.30812 10.3811 4.37942L9.55307 5.20645L18.2755 9.58401C18.3183 9.59826 18.3469 9.64104 18.3611 9.66956L24 23.7719V23.7861C24 23.8004 24 23.8004 24 23.8146C24 23.8717 23.9857 23.9144 23.9572 23.943C23.9143 24 23.8572 24 23.8287 24C23.8144 24 23.8001 24 23.8001 24C23.8001 24 23.7859 24 23.7716 24H23.7573L9.653 18.3676C9.61018 18.3534 9.58162 18.3249 9.56735 18.2821L5.19901 9.55549L4.37103 10.3825C4.3282 10.4253 4.27109 10.4396 4.24254 10.4396C4.21399 10.4396 4.17116 10.4396 4.11406 10.3825L1.03053 7.30254C0.9877 7.21699 0.987701 7.11717 1.0448 7.04588ZM9.85286 18.0539L20.7166 22.3887L21.2876 21.5189L14.9778 15.2164L14.6352 15.3732C14.4211 15.473 14.1926 15.5301 13.95 15.5301C13.0791 15.5301 12.3654 14.8171 12.3654 13.9473C12.3654 13.0775 13.0791 12.3645 13.95 12.3645C14.8208 12.3645 15.5346 13.0775 15.5346 13.9473C15.5346 14.1897 15.4775 14.4179 15.3775 14.6317L15.2205 14.974L21.5303 21.2765L22.4011 20.7061L18.0613 9.85493L9.28184 5.46311L5.47025 9.2703L9.85286 18.0539ZM15.2062 13.9616C15.2062 13.2771 14.6495 12.721 13.9642 12.721C13.279 12.721 12.7223 13.2771 12.7223 13.9616C12.7223 14.646 13.279 15.2021 13.9642 15.2021C14.6495 15.2021 15.2062 14.646 15.2062 13.9616ZM4.25682 10.0118L5.14191 9.12771L9.99562 4.2796L7.15477 1.44203L1.41597 7.15995L4.25682 10.0118Z" fill="white" stroke="white" stroke-miterlimit="10"/>
</svg>
