<svg width="14" height="33" viewBox="0 0 14 33" fill="none" xmlns="http://www.w3.org/2000/svg">
<path d="M13.0002 6.76355C13.0002 3.58366 10.4148 1 7.23275 1C4.0688 1 1.4834 3.58366 1.4834 6.76355C1.4834 9.36528 3.20097 11.5515 5.56942 12.2742C5.55134 12.2922 5.55134 12.3284 5.55134 12.3464V26.5656C5.55134 26.5837 5.55134 26.6017 5.56942 26.6198L7.08811 30.685C7.08811 30.685 7.08811 30.7031 7.10619 30.7031L7.12427 30.7211L7.14235 30.7392C7.14235 30.7392 7.16043 30.7392 7.16043 30.7573C7.16043 30.7573 7.16043 30.7573 7.17851 30.7573H7.19659C7.19659 30.7573 7.19659 30.7573 7.21467 30.7573C7.23275 30.7573 7.23275 30.7573 7.25083 30.7573C7.26891 30.7573 7.26891 30.7573 7.28699 30.7573C7.28699 30.7573 7.28699 30.7573 7.30507 30.7573H7.32315C7.32315 30.7573 7.32315 30.7573 7.34123 30.7573C7.34123 30.7573 7.35931 30.7573 7.35931 30.7392L7.37739 30.7211L7.39547 30.7031C7.39547 30.7031 7.39547 30.685 7.41355 30.685L8.93224 26.6198C8.93224 26.6017 8.95032 26.5837 8.95032 26.5656V12.3464C8.95032 12.3103 8.95032 12.2922 8.93224 12.2742C11.2826 11.5515 13.0002 9.36528 13.0002 6.76355ZM8.76953 26.9089V26.2404V26.9089ZM8.60681 12.5271V26.5475L7.43163 29.7093V25.5719C7.43163 25.4815 7.35931 25.4093 7.26891 25.4093C7.17851 25.4093 7.10619 25.4815 7.10619 25.5719V29.7093L5.89485 26.5475V12.5271H8.60681ZM7.25083 12.1838C4.26768 12.1838 1.82691 9.7447 1.82691 6.76355C1.82691 3.7824 4.26768 1.34328 7.25083 1.34328C10.234 1.34328 12.6747 3.7824 12.6747 6.76355C12.6747 9.7447 10.234 12.1838 7.25083 12.1838Z" fill="white" stroke="white" stroke-miterlimit="10"/>
<path d="M7.2514 3.54736C5.47958 3.54736 4.0332 4.99277 4.0332 6.76339C4.0332 6.85373 4.10552 6.926 4.19592 6.926C4.28632 6.926 4.35864 6.85373 4.35864 6.76339C4.35864 5.17344 5.6423 3.89065 7.23331 3.89065C7.32371 3.89065 7.39603 3.81838 7.39603 3.72804C7.41411 3.61963 7.34179 3.54736 7.2514 3.54736Z" fill="white" stroke="white" stroke-miterlimit="10"/>
</svg>
