<svg width="24" height="26" viewBox="0 0 24 26" fill="none" xmlns="http://www.w3.org/2000/svg">
<path d="M21.4036 1.89363C18.8575 -0.628606 14.725 -0.628606 12.1789 1.89363L2.47078 11.5363C2.17123 11.8338 2.17123 12.3139 2.47078 12.6114C2.77033 12.909 3.25369 12.909 3.55324 12.6114L13.2613 2.96879C15.1471 1.09571 18.4286 1.09571 20.3144 2.96879C22.2614 4.90273 22.2614 8.04031 20.3144 9.97425L6.75977 23.593C5.60242 24.7425 3.58047 24.7425 2.42312 23.593C1.22492 22.4029 1.22492 20.4689 2.42312 19.2856L15.4331 6.20104C15.8688 5.76827 16.6245 5.76827 17.0602 6.20104C17.5095 6.64734 17.5095 7.37087 17.0602 7.81717L4.58804 20.3607C4.32934 20.6177 4.32934 21.1789 4.58804 21.4359C4.88759 21.7334 5.37095 21.7334 5.6705 21.4359L18.1426 8.89233C19.1911 7.85098 19.1911 6.16047 18.1426 5.11912C17.1282 4.11158 15.3582 4.11158 14.3438 5.11912L1.33385 18.2036C-0.449826 19.9753 -0.449826 22.8965 1.33385 24.6681C2.20527 25.5337 3.36262 26.0003 4.58804 26.0003C5.81347 26.0003 6.97082 25.5337 7.84223 24.6681L21.3968 11.0494C23.943 8.52718 23.943 4.42263 21.4036 1.89363Z" fill="#272721"/>
</svg>
