<svg fill="none" height="30" viewBox="0 0 30 30" width="30" xmlns="http://www.w3.org/2000/svg"><g fill="#272721"><path d="m22.0522 0h-14.10441c-4.31119 0-7.94779 3.6366-7.94779 7.94779v14.10441c0 4.3034 3.6366 7.9478 7.94779 7.9478h14.10441c4.3034 0 7.9478-3.6366 7.9478-7.9478v-14.10441c-.0078-4.31119-3.6444-7.94779-7.9478-7.94779zm6.4203 22.0522c0 3.4815-2.9388 6.4203-6.4203 6.4203h-14.10441c-3.48152 0-6.42026-2.9388-6.42026-6.4203v-14.10441c0-3.48152 2.93874-6.42026 6.42026-6.42026h14.10441c3.4815 0 6.4203 2.93874 6.4203 6.42026z"/><path d="m14.9968 6.87793c-4.474 0-8.11838 3.64437-8.11838 8.11837s3.64438 8.1184 8.11838 8.1184 8.1184-3.6444 8.1184-8.1184-3.6366-8.11837-8.1184-8.11837zm0 14.69367c-3.6289 0-6.57535-2.9465-6.57535-6.5753s2.94645-6.57534 6.57535-6.57534c3.6288 0 6.5753 2.94654 6.5753 6.57534s-2.9465 6.5753-6.5753 6.5753z"/><path d="m23.1997 3.76855c-1.2794 0-2.3262 1.03903-2.3262 2.32619 0 1.28715 1.0391 2.32618 2.3262 2.32618 1.2794 0 2.3262-1.03903 2.3262-2.32618 0-1.28716-1.0468-2.32619-2.3262-2.32619zm0 3.09383c-.4264 0-.7831-.34893-.7831-.78315s.3489-.78315.7831-.78315.7832.34893.7832.78315-.3567.78315-.7832.78315z"/></g></svg>