<svg width="32" height="32" viewBox="0 0 32 32" fill="none" xmlns="http://www.w3.org/2000/svg">
<path d="M8.47764 0.5H23.5224C27.8361 0.5 31.4922 4.15488 31.5 8.47854V23.5224C31.5 27.8445 27.8369 31.5 23.5224 31.5H8.47764C4.1555 31.5 0.5 27.8369 0.5 23.5224V8.47764C0.5 4.15518 4.15518 0.5 8.47764 0.5ZM23.5224 30.8706C27.5121 30.8706 30.8706 27.5121 30.8706 23.5224V8.47764C30.8706 4.48788 27.5121 1.12936 23.5224 1.12936H8.47764C4.48788 1.12936 1.12936 4.48788 1.12936 8.47764V23.5224C1.12936 27.5121 4.48788 30.8706 8.47764 30.8706H23.5224Z" fill="#F9F9F9" stroke="#F9F9F9"/>
<path d="M7.83594 15.996C7.83594 11.4999 11.4994 7.83643 15.9955 7.83643C20.4996 7.83643 24.1551 11.4996 24.1551 15.996C24.1551 20.4922 20.4917 24.1556 15.9955 24.1556C11.4994 24.1556 7.83594 20.4922 7.83594 15.996ZM8.48184 15.996C8.48184 20.1429 11.8486 23.5097 15.9955 23.5097C20.1424 23.5097 23.5092 20.1429 23.5092 15.996C23.5092 11.8491 20.1424 8.48233 15.9955 8.48233C11.8486 8.48233 8.48184 11.8491 8.48184 15.996Z" fill="#F9F9F9" stroke="#F9F9F9"/>
<path d="M22.7646 6.50079C22.7646 5.40506 23.6563 4.51953 24.7459 4.51953C25.8355 4.51953 26.7272 5.40506 26.7272 6.50079C26.7272 7.59653 25.8355 8.48206 24.7459 8.48206C23.6491 8.48206 22.7646 7.59762 22.7646 6.50079ZM23.4106 6.48425C23.4106 7.22678 24.0181 7.81961 24.7459 7.81961C25.4737 7.81961 26.0813 7.22677 26.0813 6.48425C26.0813 5.74494 25.4852 5.14889 24.7459 5.14889C24.0066 5.14889 23.4106 5.74494 23.4106 6.48425Z" fill="#F9F9F9" stroke="#F9F9F9"/>
</svg>
