<svg fill="none" height="48" viewBox="0 0 61 48" width="61" xmlns="http://www.w3.org/2000/svg"><g fill="#000"><path d="m4.83545 28.6991h2.92683c.38176 0 .63626-.0648.76352-.2592.12725-.1296.19088-.3888.19088-.7776v-25.27279c0-.38881-.06363-.64802-.19088-.77762-.12726-.12961-.38176-.19441-.76352-.19441h-2.92683v-1.3608394h14.69775c1.9088 0 3.6267.3240104 5.1538.9720294 1.527.64802 2.6723 1.55525 3.4995 2.78649.8271 1.16643 1.2725 2.52727 1.2725 4.08252s-.4454 2.91612-1.2725 4.14732c-.8272 1.2312-2.0361 2.1385-3.4995 2.8513-1.5271.7128-3.245 1.0368-5.1538 1.0368h-4.7084v11.794c0 .3888.0637.648.2545.7776.1273.1296.3818.2592.7636.2592h3.6267v1.3609h-14.63415zm14.06155-14.1268c1.4634 0 2.4178-.5832 3.054-1.7497.5727-1.1664.8908-2.7865.8908-4.86012 0-2.07366-.3181-3.62891-.8908-4.79534-.5726-1.16644-1.5906-1.74966-3.054-1.74966h-3.1178c-.3817 0-.6362.0648-.7635.19441-.1272.1296-.2545.38881-.2545.77762v12.11799h4.1358z"/><path d="m32.2588 28.6991 14.5069-27.28162h-5.2174c-1.018 0-2.1633.58322-3.4359 1.68486-1.2089 1.10163-2.1633 2.46247-2.8632 4.14732-.3181.77763-.509 1.49045-.6999 2.26808-.1908.77766-.1908 1.16646-.1908 1.29606h-1.2726l.4454-10.7571594h20.1697v1.4256494l-14.5069 27.21681h5.6628c1.4634 0 2.7359-.5832 3.9448-1.7496 1.2089-1.1665 2.0997-2.3977 2.7996-3.7585.509-.9721.8908-2.0089 1.1453-3.1105.2545-1.1017.4454-1.7497.4454-1.9441h1.3361l-.6362 11.8588h-21.6331z"/><path d="m5.66278 45.5499c0 .1296-.06363.1944-.12725.2592-.06363.0648-.19088.1296-.25451.1296s-.12725 0-.19088-.0648-.12725-.1296-.12725-.1944l-.57264-1.2961h-3.05409l-.572639 1.2961c-.063627.0648-.063627.1296-.127253.1944-.063627.0648-.127254.0648-.190881.0648-.127253 0-.19088-.0648-.318133-.1296-.0636272-.0648-.127254-.1944-.127254-.2592s0-.1296.0636268-.1944l2.3541932-5.1842c.06362-.0648.12725-.1296.19088-.1944.06362-.0648.19088-.0648.2545-.0648.06363 0 .19088 0 .25451.0648s.12725.1296.19088.1944l2.35419 5.1842zm-4.00848-1.8145h2.41781l-1.20891-2.7865z"/><path d="m9.48028 47.1029c-.06363-.0648-.12725-.1944-.12725-.324v-1.2313c0-.1296.06362-.2592.12725-.324s.19088-.1296.31813-.1296h.31809c.3182-.5184.5091-1.1016.5727-1.7496s.1272-1.4257.1272-2.3329v-.7776c0-.1296.0637-.2592.1273-.324s.1909-.1296.3181-.1296h3.0541c.1273 0 .2545.0648.3181.1296.0637.0648.1273.1944.1273.324v4.7953h.4454c.1272 0 .2545.0648.3181.1296s.1273.1944.1273.324v1.2313c0 .1296-.0637.2592-.1273.324s-.1909.1296-.3181.1296c-.1273 0-.1909-.0648-.3182-.1296-.0636-.0648-.1272-.1944-.1272-.324v-.9072h-4.5811v.9072c0 .1296-.0637.2592-.1273.324-.06361.0648-.19086.1296-.31811.1296-.12726 0-.19088.0648-.25451-.0648zm4.32662-6.4802h-2.2906v.3888c0 .9072-.0636 1.7497-.1908 2.3977-.1273.648-.3182 1.2312-.5727 1.7496h2.9905v-4.5361z"/><path d="m23.9235 43.3455c.1909.2592.2545.5832.2545.9072 0 .5185-.1909.9073-.509 1.1665-.3182.2592-.8272.4536-1.4634.4536h-2.0997c-.1273 0-.2545-.0648-.3182-.1296-.0636-.0648-.0636-.1944-.0636-.324v-5.1194c0-.1296.0636-.2592.1273-.324.0636-.0648.1909-.1296.3181-.1296h2.0361c.5726 0 1.0816.1296 1.3998.3888.3181.2592.509.648.509 1.1664 0 .3241-.0637.5833-.2545.8425-.1909.2592-.3818.3888-.6999.5184.3181.1296.5726.324.7635.5832zm-3.3722-.8424h1.4634c.8271 0 1.2089-.324 1.2089-.9721 0-.324-.1273-.5184-.3181-.7128-.1909-.1944-.5091-.2592-.9544-.2592h-1.4635v1.9441zm2.545 2.4625c.1909-.1296.3182-.3888.3182-.7129 0-.324-.1273-.5832-.3182-.7776-.1908-.1944-.509-.2592-.9544-.2592h-1.5906v1.9441h1.5906c.4454 0 .7636-.0648.9544-.1944z"/><path d="m29.7135 45.5488c-.3818-.2592-.6999-.5832-.9544-1.0369-.1909-.4536-.3182-.972-.3182-1.62s.1273-1.1665.3182-1.6201c.1908-.4536.509-.7776.9544-1.0368.4453-.2592.8907-.3888 1.4634-.3888.5726 0 1.018.1296 1.4634.3888s.6999.5832.9544 1.0368c.1909.4536.3181.9721.3181 1.6201s-.1272 1.1664-.3181 1.62c-.1909.4537-.509.7777-.9544 1.0369-.3818.2592-.8908.3888-1.4634.3888-.5727 0-1.0817-.1296-1.4634-.3888zm2.7995-.9073c.3182-.3888.509-.972.509-1.7496s-.1908-1.2961-.509-1.7497c-.3181-.3888-.7635-.5832-1.3998-.5832-.5726 0-1.018.1944-1.3361.5832-.3182.4536-.509 1.0369-.509 1.7497 0 .7776.1908 1.296.509 1.7496.3181.4537.7635.5833 1.3361.5833.6363 0 1.0817-.1944 1.3998-.5833z"/><path d="m38.4305 45.808c-.0637-.0648-.1273-.1944-.1273-.324v-5.1842c0-.1296.0636-.2592.1273-.324.0636-.0648.1909-.1296.3181-.1296.1273 0 .2545.0648.3181.1296.0637.0648.1273.1944.1273.324v2.2033h.8271l1.9088-2.4625c.0637-.1296.1909-.1944.3182-.1944.1272 0 .1909.0648.2545.1296s.1272.1296.1272.2592c0 .0648-.0636.1944-.1272.2592l-1.7179 2.1385c.1908.0648.3817.1296.509.2592.1272.0648.2545.1944.3817.3888.1273.1944.2545.3888.3818.648l.7635 1.3609c.0636.0648.0636.1944.0636.2592 0 .1296-.0636.1944-.1272.2592s-.1909.1296-.2545.1296c-.1909 0-.2545-.0648-.3818-.2592l-.8908-1.6201c-.1908-.324-.3817-.5184-.509-.648-.1908-.1296-.4454-.1944-.6999-.1944h-.8271v2.2681c0 .1296-.0636.2592-.1273.324-.0636.0648-.1908.1296-.3181.1296-.1272 0-.2545-.0648-.3181-.1296z"/><path d="m52.2375 45.5494c0 .1296-.0636.1944-.1273.2592-.0636.0648-.1908.1296-.2545.1296-.0636 0-.1272 0-.1909-.0648-.0636-.0648-.1272-.1296-.1272-.1944l-.5726-1.296h-3.0541l-.5727 1.296c-.0636.0648-.0636.1296-.1272.1944-.0637.0648-.1273.0648-.1909.0648-.1273 0-.1909-.0648-.3181-.1296-.0637-.0648-.1273-.1944-.1273-.2592s0-.1296.0636-.1944l2.3542-5.1842c.0637-.0648.1273-.1296.1909-.1944s.1909-.0648.2545-.0648.1909 0 .2545.0648.1273.1296.1909.1944l2.3542 5.1842c-.0636.0648 0 .1296 0 .1944zm-4.0721-1.8145h2.4178l-1.2089-2.7864z"/><path d="m57.2004 45.8078c-.0636-.0648-.1272-.1944-.1272-.324v-4.7954h-1.6543c-.2545 0-.3818-.1296-.3818-.3888 0-.1296.0636-.1944.1273-.2592.0636-.0648.1908-.0648.3181-.0648h4.1994c.1272 0 .2545 0 .3181.0648s.1273.1296.1273.2592c0 .2592-.1273.3888-.3818.3888h-1.6543v4.7954c0 .1296-.0636.2592-.1273.324-.0636.0648-.1908.1296-.3181.1296-.2545 0-.3181-.0648-.4454-.1296z"/></g></svg>