<svg width="28" height="25" viewBox="0 0 28 25" fill="none" xmlns="http://www.w3.org/2000/svg">
<path d="M24.8938 0H2.85469C1.27969 0 0 1.48327 0 3.30882V21.6341C0 23.4914 1.30156 25 2.90391 25H25.1617C26.7313 25 28 23.5294 28 21.7102V3.60041C28 1.62272 26.6 0 24.8938 0ZM23.4773 1.55933L14.1805 9.41303C14.0711 9.50177 13.9289 9.50177 13.8195 9.41303L4.56094 1.59102C4.40234 1.45791 4.48438 1.16633 4.68125 1.16633H23.368C23.5484 1.16633 23.625 1.43256 23.4773 1.55933ZM2.84375 23.8337H2.59219C1.71719 23.8337 1.00625 23.0096 1.00625 21.9954V5.54006C1.00625 5.24848 1.29062 5.08367 1.49297 5.25482L3.02422 6.54792C3.10078 6.61765 3.15 6.71907 3.15 6.83316V23.4787C3.15 23.6752 3.01328 23.8337 2.84375 23.8337ZM23.5375 23.8337H4.4625C4.29297 23.8337 4.15625 23.6752 4.15625 23.4787V8.20233C4.15625 7.91075 4.44063 7.74594 4.64297 7.91709L13.7047 15.5743C13.7922 15.6504 13.8961 15.6884 14 15.6884C14.1039 15.6884 14.2078 15.6504 14.2953 15.5743L23.357 7.91709C23.5594 7.74594 23.8438 7.91075 23.8438 8.20233V23.4787C23.8492 23.6752 23.707 23.8337 23.5375 23.8337ZM26.9937 21.9954C26.9937 23.0096 26.2828 23.8337 25.4078 23.8337H25.1562C24.9867 23.8337 24.85 23.6752 24.85 23.4787V6.83316C24.85 6.71907 24.8992 6.61131 24.9758 6.54792L26.507 5.25482C26.7094 5.08367 26.9937 5.24848 26.9937 5.54006V21.9954ZM14.1805 14.2305C14.0711 14.3192 13.9289 14.3192 13.8195 14.2305L1.43281 3.76521C0.667188 3.07429 2.05625 1.00152 2.68516 1.45157L13.7047 10.7632C13.7922 10.8392 13.8961 10.8773 14 10.8773C14.1039 10.8773 14.2078 10.8392 14.2953 10.7632L25.2547 1.50862C25.807 0.969828 27.3383 2.97921 26.6164 3.73352L14.1805 14.2305Z" fill="#272721"/>
</svg>
