<svg fill="none" height="15" viewBox="0 0 15 15" width="15" xmlns="http://www.w3.org/2000/svg"><path d="m10.8631 14.9998c-.2022 0-.4015-.0581-.5732-.166-3.70498-2.3487-7.77268-6.40988-10.123586-10.11143-.2547503-.40114-.2132149-.92123.099685-1.27811.074764-.11619.321208-.5201.681181-1.11489l-.049842-.04979c-.110761-.11066-.174449-.26282-.174449-.42051s.060919-.30708.174449-.4205l1.268212-1.264282c.11076-.1106591.26029-.174288.4209-.174288.15783 0 .30736.0608625.42089.174288l3.53882 3.535552c.11353.11343.17444.26282.17444.42051s-.06368.30984-.17444.4205l-1.26822 1.26705c-.11353.11342-.26029.17429-.42089.17429-.1523 0-.29352-.05533-.40428-.15769l-.09692.09682c1.2433 1.5022 3.201 3.46086 4.70735 4.70578l.09969-.0996c-.09969-.1079-.15784-.2545-.15784-.4039 0-.15769.06092-.30708.17445-.42051l1.2682-1.26704c.108-.11066.2631-.17152.4209-.17152s.3101.06363.4209.17428l3.5361 3.52999c.1107.1107.1744.2656.1744.4233s-.0637.3043-.1744.415l-1.2683 1.267c-.2298.2324-.6064.2324-.839 0l-.0471-.047c-.5593.3486-.983.6169-1.102.6916-.1939.1743-.4486.2711-.7061.2711zm.7365-.296c0 .0028 0 .0028 0 0zm-9.75249-12.84473c.19107.19089.2243.48413.08584.71099-.5178.85484-.81409 1.3362-.87501 1.4275-.01661.02766-.03876.05256-.060917.07746-.030459.0332-.035998.08853-.011076.12449 2.278913 3.59088 6.227543 7.53309 9.821753 9.80989.0166.0111.036.0166.0554.0166.0249 0 .0526-.011.072-.0276.0221-.0222.0498-.0415.0747-.0609.1412-.0941 1.2018-.7552 1.4122-.888.2299-.1439.5261-.1107.7172.0802l.7366-.7359-3.01-2.99885-.7365.73585c.1052.1079.1634.2518.1634.4039 0 .155-.061.3016-.1717.4122l-.62029.617c-.21045.2102-.54273.2296-.77533.0442-1.69741-1.3528-3.99571-3.65172-5.34699-5.3448-.18553-.23238-.16614-.56436.0443-.77461l.61749-.61693c.2243-.22408.58704-.22685.8141-.0083l.73656-.73588-3.00439-3.00439zm8.75289 7.2703s.0028 0 0 0zm-7.74773-8.271763c-.00277 0-.00277 0 0 0z" fill="#272721"/></svg>