<svg fill="none" height="25" viewBox="0 0 25 25" width="25" xmlns="http://www.w3.org/2000/svg"><path d="m24.9457 21.0863-6.3063-6.2989c-.0741-.074-.2024-.074-.2764 0l-2.26 2.2524c-.0345.0345-.0592.0887-.0592.138s.0197.1035.0592.138l.5823.5816-1.3373 1.3357c-3.0002-2.3707-7.2439-6.6094-9.60755-9.60116l1.33233-1.33076.58228.58159c.07402.07393.20231.07393.27633 0l2.26001-2.25735c.0346-.0345.0592-.08871.0592-.138s-.0197-.09858-.0592-.13801l-6.31127-6.293962c-.07402-.0739307-.20232-.0739307-.27634 0l-2.25509 2.252422c-.03454.0345-.05921.08872-.05921.138 0 .04929.01974.10351.05921.13801l.56748.5668c-.63163 1.03996-1.519845 2.49886-1.623471 2.64672-.3306144.34501-.389829.88224-.133232 1.28639 4.125283 6.49601 11.265623 13.62791 17.769323 17.74341.1678.1035.3602.1626.5576.1626.2714 0 .5379-.1084.7303-.2957.1431-.0986 1.5889-1.0055 2.6203-1.6462l.5674.5668c.079.0739.2023.0739.2764 0l2.26-2.2574c.0345-.0345.0592-.0887.0592-.138 0-.0443-.0197-.0985-.0543-.133z" fill="#000"/></svg>