<svg width="32" height="32" viewBox="0 0 32 32" fill="none" xmlns="http://www.w3.org/2000/svg">
<path d="M8.47764 0.5H23.5224C27.8361 0.5 31.4922 4.15488 31.5 8.47854V23.5224C31.5 27.8445 27.8369 31.5 23.5224 31.5H8.47764C4.1555 31.5 0.5 27.8369 0.5 23.5224V8.47764C0.5 4.15518 4.15518 0.5 8.47764 0.5ZM23.5224 30.8706C27.5121 30.8706 30.8706 27.5121 30.8706 23.5224V8.47764C30.8706 4.48788 27.5121 1.12936 23.5224 1.12936H8.47764C4.48788 1.12936 1.12936 4.48788 1.12936 8.47764V23.5224C1.12936 27.5121 4.48788 30.8706 8.47764 30.8706H23.5224Z" fill="#F9F9F9" stroke="#F9F9F9"/>
<path d="M6.07131 15.5319L6.07135 15.5318L6.06282 15.5278C5.92085 15.4604 5.83549 15.321 5.84325 15.1502C5.85091 14.9819 5.9514 14.8426 6.10436 14.7828C6.10441 14.7828 6.10446 14.7828 6.1045 14.7828L25.2576 7.31507C25.2579 7.31494 25.2583 7.31481 25.2586 7.31468C25.3224 7.29024 25.3682 7.28223 25.4089 7.28223C25.5278 7.28223 25.6423 7.33564 25.723 7.4355L25.7229 7.43556L25.7291 7.44293C25.7997 7.52695 25.8345 7.64517 25.8109 7.7807L22.4706 24.3666L22.4706 24.3666L22.4697 24.3709C22.4331 24.5616 22.2619 24.7015 22.0675 24.7015C22.003 24.7015 21.9412 24.6857 21.8744 24.6464L21.8744 24.6464L21.8682 24.6429L16.7403 21.7233L16.3581 21.5057L16.0935 21.857L14.0754 24.5368L14.0748 24.5375C13.9941 24.6452 13.8766 24.7015 13.7553 24.7015C13.648 24.7015 13.539 24.6602 13.461 24.5897C13.39 24.5255 13.3372 24.4314 13.3372 24.2917V18.4855C13.3372 18.3581 13.3876 18.2496 13.4725 18.1753L13.4725 18.1753L13.4769 18.1714L14.1137 17.6007L13.5287 16.7961L11.4527 18.0037L11.4458 18.0077L11.4391 18.0119C11.3968 18.0383 11.326 18.0599 11.2492 18.0599C11.1642 18.0599 11.1106 18.0445 11.0792 18.0278L11.0793 18.0276L11.0669 18.0215L6.07131 15.5319ZM21.183 23.3117L21.7847 23.6546L21.9209 22.9757L24.6751 9.24604L24.8549 8.34943L24.003 8.68192L8.32145 14.8024L7.27247 15.2118L8.27964 15.7154L10.9925 17.0718L11.2339 17.1925L11.4673 17.0569L21.045 11.4906L21.0451 11.4907L21.0545 11.4849C21.1241 11.4424 21.1909 11.4259 21.2569 11.4259C21.4024 11.4259 21.5673 11.5272 21.6413 11.7152C21.6976 11.8699 21.6601 12.0329 21.5209 12.1562L21.5208 12.1563L14.3335 18.5248L14.165 18.674V18.8991V21.5705V23.0648L15.0644 21.8715L15.9245 20.7301L15.9252 20.7292C16.003 20.6255 16.1267 20.5652 16.2531 20.5652C16.3173 20.5652 16.3846 20.581 16.4598 20.6198L21.183 23.3117Z" fill="#F9F9F9" stroke="#F9F9F9"/>
</svg>
