<svg width="32" height="32" viewBox="0 0 32 32" fill="none" xmlns="http://www.w3.org/2000/svg">
<path d="M16.4508 5.71493L16.9504 5.73452C16.9577 5.54887 17.1143 5.4292 17.22 5.4292H17.22H17.2201H17.2202H17.2203H17.2204H17.2205H17.2206H17.2207H17.2208H17.2209H17.221H17.2211H17.2212H17.2213H17.2214H17.2215H17.2216H17.2217H17.2218H17.2219H17.222H17.2221H17.2222H17.2223H17.2224H17.2225H17.2226H17.2227H17.2228H17.2229H17.223H17.2231H17.2232H17.2234H17.2235H17.2236H17.2237H17.2238H17.2239H17.224H17.2241H17.2242H17.2243H17.2244H17.2245H17.2246H17.2247H17.2248H17.2249H17.225H17.2251H17.2252H17.2253H17.2254H17.2255H17.2257H17.2258H17.2259H17.226H17.2261H17.2262H17.2263H17.2264H17.2265H17.2266H17.2267H17.2268H17.2269H17.2271H17.2272H17.2273H17.2274H17.2275H17.2276H17.2277H17.2278H17.2279H17.228H17.2281H17.2282H17.2284H17.2285H17.2286H17.2287H17.2288H17.2289H17.229H17.2291H17.2292H17.2294H17.2295H17.2296H17.2297H17.2298H17.2299H17.23H17.2301H17.2302H17.2304H17.2305H17.2306H17.2307H17.2308H17.2309H17.231H17.2311H17.2313H17.2314H17.2315H17.2316H17.2317H17.2318H17.2319H17.232H17.2322H17.2323H17.2324H17.2325H17.2326H17.2327H17.2328H17.233H17.2331H17.2332H17.2333H17.2334H17.2335H17.2337H17.2338H17.2339H17.234H17.2341H17.2342H17.2343H17.2345H17.2346H17.2347H17.2348H17.2349H17.235H17.2352H17.2353H17.2354H17.2355H17.2356H17.2357H17.2359H17.236H17.2361H17.2362H17.2363H17.2364H17.2366H17.2367H17.2368H17.2369H17.237H17.2371H17.2373H17.2374H17.2375H17.2376H17.2377H17.2379H17.238H17.2381H17.2382H17.2383H17.2384H17.2386H17.2387H17.2388H17.2389H17.239H17.2392H17.2393H17.2394H17.2395H17.2396H17.2397H17.2399H17.24H17.2401H17.2402H17.2403H17.2405H17.2406H17.2407H17.2408H17.2409H17.2411H17.2412H17.2413H17.2414H17.2415H17.2417H17.2418H17.2419H17.242H17.2421H17.2423H17.2424H17.2425H17.2426H17.2427H17.2429H17.243H17.2431H17.2432H17.2433H17.2435H17.2436H17.2437H17.2438H17.2439H17.2441H17.2442H17.2443H17.2444H17.2445H17.2447H17.2448H17.2449H17.245H17.2451H17.2453H17.2454H17.2455H17.2456H17.2458H17.2459H17.246H17.2461H17.2462H17.2464H17.2465H17.2466H17.2467H17.2468H17.247H17.2471H17.2472H17.2473H17.2474H17.2476H17.2477H17.2478H17.2479H17.2481H17.2482H17.2483H17.2484H17.2485H17.2487H17.2488H17.2489H17.249H17.2491H17.2493H17.2494H17.2495H17.2496H17.2497H17.2499H17.25H17.2501H17.2502H17.2504H17.2505H17.2506H17.2507H17.2508H17.251H17.2511H17.2512H17.2513H17.2514H17.2516H17.2517H17.2518H17.2519H17.252H17.2522H17.2523H17.2524H17.2525H17.2527H17.2528H17.2529H17.253H17.2531H17.2533H17.2534H17.2535H17.2536H17.2537H17.2539H17.254H17.2541H17.2542H17.2543H17.2545H17.2546H17.2547H17.2548H17.2549H17.2551H17.2552H17.2553H17.2554H17.2555H17.2557H17.2558H17.2559H17.256H17.2561H17.2563H17.2564H17.2565H17.2566H17.2567H17.2569H17.257H17.2571H17.2572H17.2573H17.2575H17.2576H17.2577H17.2578H17.2579H17.2581H17.2582H17.2583H17.2584H17.2585H17.2586H17.2588H17.2589H17.259H17.2591H17.2592H17.2594H17.2595H17.2596H17.2597H17.2598H17.26H17.2601H17.2602H17.2603H17.2604H17.2605H17.2607H17.2608H17.2609H17.261H17.2611H17.2612H17.2614H17.2615H17.2616H17.2617H17.2618H17.2619H17.2621H17.2622H17.2623H17.2624H17.2625H17.2626H17.2628H17.2629H17.263H17.2631H17.2632H17.2633H17.2635H17.2636H17.2637H17.2638H17.2639H17.264H17.2641H17.2643H17.2644H17.2645H17.2646H17.2647H17.2648H17.265H17.2651H17.2652H17.2653H17.2654H17.2655H17.2656H17.2658H17.2659H17.266H17.2661H17.2662H17.2663H17.2664H17.2665H17.2667H17.2668H17.2669H17.267H17.2671H17.2672H17.2673H17.2674H17.2676H17.2677H17.2678H17.2679H17.268H17.2681H17.2682H17.2683H17.2684H17.2686H17.2687H17.2688H17.2689H17.269H17.2691H17.2692H17.2693H17.2694H17.2696H17.2697H17.2698H17.2699H17.27H17.2701H17.2702H17.2703H17.2704H17.2705H17.2706H17.2708H17.2709H17.271H17.2711H17.2712H17.2713H17.2714H17.2715H17.2716H17.2717H17.2718H17.2719H17.272H17.2721H17.2723H17.2724H17.2725H17.2726H17.2727H17.2728H17.2729H17.273H17.2731H17.2732H17.2733H17.2734H17.2735H17.2736H17.2737H17.2738H17.2739H17.274H17.2741H17.2742H17.2743H17.2744H17.2746H17.2747H17.2748H17.2749H17.275H17.2751H17.2752H17.2753H17.2754H17.2755H17.2756H17.2757H17.2758H17.2759H17.276H17.2761H17.2762H17.2763H17.2764H17.2765H17.2766H17.2767H17.2768H17.2769H17.277H17.2771H17.2772H17.2773H17.2774H17.2775H17.2776H17.2777H17.2778L17.2778 5.4292C22.3451 5.5988 26.7407 10.1351 26.6781 15.0961L26.6781 15.0961V15.1024C26.6781 15.2613 26.5413 15.4046 26.3675 15.4046H26.3567C26.1835 15.3995 26.0456 15.252 26.0486 15.0868L26.0487 15.0843C26.0797 12.7665 25.0336 10.5468 23.4212 8.89431C21.8089 7.24186 19.5974 6.12218 17.2466 6.04235C17.1575 6.0387 17.0795 6.0009 17.0336 5.95497C16.9747 5.88659 16.9476 5.80607 16.9504 5.73415L16.4508 5.71493ZM16.4508 5.71493C16.4673 5.29312 16.8147 4.9292 17.22 4.9292H17.2778H17.2861L16.6658 6.29389C16.5252 6.13675 16.4425 5.92997 16.4508 5.71493Z" fill="#F9F9F9" stroke="#F9F9F9"/>
<path d="M17.064 9.52792L17.064 9.5279L17.0601 9.52747C16.8901 9.50858 16.764 9.35302 16.782 9.18026C16.8027 9.01677 16.9385 8.90332 17.0876 8.90332L17.0923 8.90334L17.0966 8.90442L17.1284 8.90816C20.4856 9.30359 23.1526 12.1814 23.1299 15.2479H23.1298V15.2516C23.1298 15.4105 22.9931 15.5539 22.8193 15.5539H22.811C22.6543 15.5539 22.5097 15.4198 22.5088 15.2369C22.5346 12.3967 20.0547 9.88395 17.064 9.52792Z" fill="#F9F9F9" stroke="#F9F9F9"/>
<path d="M14.6804 11.0666C14.7546 12.4015 13.7697 13.0633 13.2389 13.4199L13.233 13.4238C12.7285 13.7629 12.5135 14.102 12.8691 14.9291L12.8939 14.9704L14.7135 17.584L14.7466 17.6171C15.5158 18.345 16.4504 18.957 17.5422 19.4367C17.7737 19.536 17.964 19.5856 18.1211 19.5856C18.4685 19.5856 18.6174 19.3705 18.7166 19.2217L14.6804 11.0666ZM14.6804 11.0666C14.606 9.66882 11.7195 5.81459 10.3961 5.34315L14.6804 11.0666ZM25.4782 20.6046L25.4782 20.6046L25.4825 20.6078C25.9055 20.9208 26.3419 21.2546 26.6124 21.6977C26.861 22.105 26.9868 22.6354 26.7007 23.4065L26.6992 23.4105C26.4353 24.1407 25.8266 24.9513 25.0289 25.5801C24.2313 26.209 23.3014 26.6121 22.422 26.6121C22.3675 26.6121 22.3275 26.6062 22.3117 26.6022L22.3071 26.6011L22.1003 26.5514L22.0972 26.5507L22.0646 26.5431C21.8125 26.4844 21.4999 26.4116 21.2129 26.2886L21.2102 26.2874C13.9882 23.2423 8.88599 18.2073 6.03604 11.3382L6.036 11.3381C5.53293 10.1261 5.52665 8.99169 5.96238 8.04142C6.42124 7.04515 7.34503 6.26434 8.7173 5.80949L8.71733 5.80956L8.72573 5.80661C8.97679 5.7184 9.23491 5.67773 9.47806 5.67773C9.72219 5.67773 9.97913 5.72417 10.2263 5.81343L10.2263 5.81343L10.2283 5.81416C10.4483 5.89252 10.8104 6.15214 11.2631 6.59658C11.699 7.0245 12.1698 7.574 12.6064 8.15717C13.043 8.74034 13.4374 9.34635 13.7246 9.88438C14.0231 10.4435 14.1688 10.8623 14.1811 11.0932L14.1812 11.0943C14.2384 12.1244 13.5012 12.6413 12.9542 13.0088L12.9541 13.0088C12.6785 13.1941 12.3767 13.4446 12.2515 13.8437C12.1262 14.2426 12.2135 14.67 12.4098 15.1266L12.4231 15.1575L12.4404 15.1863L12.4652 15.2277L12.4739 15.2422L12.4836 15.2561L14.3032 17.8697L14.3286 17.9062L14.36 17.9376L14.3931 17.9707L14.3929 17.9708L14.4029 17.9803C15.2178 18.7513 16.2019 19.3939 17.341 19.8945L17.341 19.8945L17.3452 19.8963C17.6039 20.0071 17.8663 20.0856 18.1211 20.0856C18.4099 20.0856 18.6412 19.9923 18.8189 19.8541C18.9791 19.7295 19.0791 19.5794 19.1293 19.5041L19.1314 19.5009C19.6382 18.7563 20.2103 18.3612 20.8132 18.242C20.95 18.2207 21.0772 18.2081 21.2062 18.2081C21.7693 18.2081 22.4241 18.4302 23.1466 18.9299L23.1474 18.9304L23.5196 19.1868L23.5195 19.1868L23.5244 19.1901C24.0511 19.544 24.6253 19.9405 25.1637 20.3665L25.1636 20.3666L25.1722 20.373L25.4782 20.6046ZM26.1262 23.2044L26.1277 23.2C26.1927 23.0146 26.2418 22.8191 26.2403 22.616C26.2387 22.401 26.1808 22.2052 26.0724 22.0226C25.8821 21.7019 25.5251 21.418 25.1093 21.1002C25.1087 21.0997 25.1081 21.0993 25.1076 21.0989L25.0391 21.0456C24.994 21.0096 24.9477 20.9743 24.9065 20.9429L24.9044 20.9413C24.8601 20.9075 24.8214 20.8781 24.7855 20.8493L24.7832 20.8475C24.2602 20.4342 23.7062 20.0561 23.1926 19.7055L23.1771 19.6949L23.1753 19.6937L22.8049 19.4385L22.8048 19.4384C22.268 19.0689 21.7277 18.8292 21.2227 18.8292C21.1205 18.8292 21.0325 18.8418 20.9768 18.8498L20.97 18.8508L20.9563 18.8527L20.9427 18.8554C20.4214 18.9597 20.0018 19.3539 19.6665 19.8524L20.0813 20.1315L19.6668 19.8519C19.2671 20.4445 18.7519 20.7232 18.1625 20.7232C17.8404 20.7232 17.4888 20.6446 17.1033 20.47L17.1006 20.4688C15.8517 19.912 14.7783 19.2002 13.8988 18.3532C13.8899 18.344 13.8764 18.328 13.8481 18.2927L11.9053 15.5267L11.8963 15.5139L11.8866 15.5017C11.885 15.4998 11.8839 15.4983 11.8831 15.4971L11.8818 15.494L11.8772 15.4839C11.4868 14.6211 11.5127 14.0031 11.6799 13.5584C11.8524 13.0993 12.2046 12.7474 12.6006 12.4834L12.602 12.4825C12.8943 12.2862 13.1381 12.1009 13.302 11.8945C13.4887 11.6594 13.5622 11.411 13.5511 11.138V11.1245V11.0843L13.5446 11.0446C13.5161 10.868 13.4423 10.6764 13.3591 10.4969C13.2723 10.3097 13.1598 10.1029 13.0316 9.88779C12.7751 9.45725 12.4424 8.97105 12.0923 8.50518C11.7423 8.03934 11.3684 7.5852 11.0273 7.22044C10.8569 7.03824 10.6901 6.87342 10.5351 6.73902C10.389 6.61248 10.2282 6.49054 10.0682 6.41493L10.0573 6.40951L10.0303 6.39601L10.0019 6.38585C9.84983 6.33155 9.68391 6.29055 9.48633 6.29055C9.29525 6.29055 9.10875 6.32881 8.92409 6.39027C7.8118 6.75804 6.95798 7.40201 6.54357 8.29146L6.54354 8.29145L6.54104 8.29698C6.16428 9.13196 6.21526 10.1156 6.62638 11.0938C9.41748 17.8221 14.4224 22.7361 21.4665 25.7117L21.4665 25.7118L21.4724 25.7142C21.7273 25.818 22.01 25.8831 22.2135 25.9299C22.2236 25.9323 22.2336 25.9346 22.2434 25.9368L22.2989 25.9496H22.3113C22.312 25.9498 22.3128 25.95 22.3135 25.9501L22.3148 25.9504C22.3327 25.9544 22.3558 25.9595 22.3818 25.9647L22.3954 25.9675L22.4091 25.9694L22.467 25.9777L22.5163 25.9847L22.5659 25.9819C23.2917 25.941 24.0598 25.5647 24.6849 25.0736C25.3132 24.58 25.8702 23.9131 26.1262 23.2044Z" fill="#F9F9F9" stroke="#F9F9F9"/>
<path d="M8.47764 0.5H23.5224C27.8361 0.5 31.4922 4.15488 31.5 8.47854V23.5224C31.5 27.8445 27.8369 31.5 23.5224 31.5H8.47764C4.1555 31.5 0.5 27.8369 0.5 23.5224V8.47764C0.5 4.15518 4.15518 0.5 8.47764 0.5ZM23.5224 30.8706C27.5121 30.8706 30.8706 27.5121 30.8706 23.5224V8.47764C30.8706 4.48788 27.5121 1.12936 23.5224 1.12936H8.47764C4.48788 1.12936 1.12936 4.48788 1.12936 8.47764V23.5224C1.12936 27.5121 4.48788 30.8706 8.47764 30.8706H23.5224Z" fill="#F9F9F9" stroke="#F9F9F9"/>
</svg>
