<svg width="41" height="41" viewBox="0 0 41 41" fill="none" xmlns="http://www.w3.org/2000/svg">
<path d="M21.0774 7.32215L21.577 7.34174C21.5889 7.03745 21.8432 6.81543 22.0629 6.81543H22.063H22.0632H22.0633H22.0634H22.0635H22.0637H22.0638H22.0639H22.064H22.0642H22.0643H22.0644H22.0645H22.0647H22.0648H22.0649H22.0651H22.0652H22.0653H22.0654H22.0656H22.0657H22.0658H22.066H22.0661H22.0662H22.0663H22.0665H22.0666H22.0667H22.0669H22.067H22.0671H22.0673H22.0674H22.0675H22.0677H22.0678H22.0679H22.0681H22.0682H22.0683H22.0685H22.0686H22.0687H22.0689H22.069H22.0691H22.0693H22.0694H22.0695H22.0697H22.0698H22.0699H22.0701H22.0702H22.0704H22.0705H22.0706H22.0708H22.0709H22.071H22.0712H22.0713H22.0715H22.0716H22.0717H22.0719H22.072H22.0721H22.0723H22.0724H22.0726H22.0727H22.0728H22.073H22.0731H22.0733H22.0734H22.0735H22.0737H22.0738H22.074H22.0741H22.0742H22.0744H22.0745H22.0747H22.0748H22.075H22.0751H22.0752H22.0754H22.0755H22.0757H22.0758H22.076H22.0761H22.0762H22.0764H22.0765H22.0767H22.0768H22.077H22.0771H22.0772H22.0774H22.0775H22.0777H22.0778H22.078H22.0781H22.0783H22.0784H22.0786H22.0787H22.0788H22.079H22.0791H22.0793H22.0794H22.0796H22.0797H22.0799H22.08H22.0802H22.0803H22.0805H22.0806H22.0808H22.0809H22.0811H22.0812H22.0813H22.0815H22.0816H22.0818H22.0819H22.0821H22.0822H22.0824H22.0825H22.0827H22.0828H22.083H22.0831H22.0833H22.0834H22.0836H22.0837H22.0839H22.084H22.0842H22.0843H22.0845H22.0846H22.0848H22.0849H22.0851H22.0852H22.0854H22.0855H22.0857H22.0858H22.086H22.0861H22.0863H22.0864H22.0866H22.0868H22.0869H22.0871H22.0872H22.0874H22.0875H22.0877H22.0878H22.088H22.0881H22.0883H22.0884H22.0886H22.0887H22.0889H22.089H22.0892H22.0893H22.0895H22.0896H22.0898H22.09H22.0901H22.0903H22.0904H22.0906H22.0907H22.0909H22.091H22.0912H22.0913H22.0915H22.0916H22.0918H22.092H22.0921H22.0923H22.0924H22.0926H22.0927H22.0929H22.093H22.0932H22.0933H22.0935H22.0936H22.0938H22.094H22.0941H22.0943H22.0944H22.0946H22.0947H22.0949H22.095H22.0952H22.0953H22.0955H22.0957H22.0958H22.096H22.0961H22.0963H22.0964H22.0966H22.0967H22.0969H22.0971H22.0972H22.0974H22.0975H22.0977H22.0978H22.098H22.0981H22.0983H22.0984H22.0986H22.0988H22.0989H22.0991H22.0992H22.0994H22.0995H22.0997H22.0998H22.1H22.1002H22.1003H22.1005H22.1006H22.1008H22.1009H22.1011H22.1012H22.1014H22.1016H22.1017H22.1019H22.102H22.1022H22.1023H22.1025H22.1026H22.1028H22.1029H22.1031H22.1033H22.1034H22.1036H22.1037H22.1039H22.104H22.1042H22.1043H22.1045H22.1047H22.1048H22.105H22.1051H22.1053H22.1054H22.1056H22.1057H22.1059H22.106H22.1062H22.1064H22.1065H22.1067H22.1068H22.107H22.1071H22.1073H22.1074H22.1076H22.1077H22.1079H22.1081H22.1082H22.1084H22.1085H22.1087H22.1088H22.109H22.1091H22.1093H22.1094H22.1096H22.1097H22.1099H22.11H22.1102H22.1104H22.1105H22.1107H22.1108H22.111H22.1111H22.1113H22.1114H22.1116H22.1117H22.1119H22.112H22.1122H22.1123H22.1125H22.1126H22.1128H22.1129H22.1131H22.1133H22.1134H22.1136H22.1137H22.1139H22.114H22.1142H22.1143H22.1145H22.1146H22.1148H22.1149H22.1151H22.1152H22.1154H22.1155H22.1157H22.1158H22.116H22.1161H22.1163H22.1164H22.1166H22.1167H22.1169H22.117H22.1172H22.1173H22.1175H22.1176H22.1178H22.1179H22.1181H22.1182H22.1184H22.1185H22.1187H22.1188H22.1189H22.1191H22.1192H22.1194H22.1195H22.1197H22.1198H22.12H22.1201H22.1203H22.1204H22.1206H22.1207H22.1209H22.121H22.1212H22.1213H22.1214H22.1216H22.1217H22.1219H22.122H22.1222H22.1223H22.1225H22.1226H22.1228H22.1229H22.123H22.1232H22.1233H22.1235H22.1236H22.1238H22.1239H22.124H22.1242H22.1243H22.1245H22.1246H22.1248H22.1249H22.125H22.1252H22.1253H22.1255H22.1256H22.1258H22.1259H22.126H22.1262H22.1263H22.1265H22.1266H22.1267H22.1269H22.127H22.1272H22.1273H22.1274H22.1276H22.1277H22.1279H22.128H22.1281H22.1283H22.1284H22.1285H22.1287H22.1288H22.129H22.1291H22.1292H22.1294H22.1295H22.1296H22.1298H22.1299H22.1301H22.1302H22.1303H22.1305H22.1306H22.1307H22.1309H22.131H22.1311H22.1313H22.1314H22.1315H22.1317H22.1318H22.1319H22.1321H22.1322H22.1323H22.1325H22.1326H22.1327H22.1329H22.133H22.1331H22.1333H22.1334H22.1335H22.1337H22.1338H22.1339H22.134H22.1342H22.1343H22.1344H22.1346H22.1347H22.1348H22.1349H22.1351H22.1352H22.1353H22.1355H22.1356H22.1357H22.1358H22.136H22.1361H22.1362H22.1363H22.1365H22.1366H22.1367H22.1368H22.137H22.1371H22.1395C28.707 7.0339 34.403 12.9078 34.3218 19.3435L34.3217 19.3435V19.3498C34.3217 19.632 34.0827 19.8777 33.7832 19.8777H33.7674C33.4688 19.8701 33.2287 19.6179 33.234 19.3273L33.2341 19.3247C33.2732 16.3987 31.952 13.5893 29.9076 11.4939C27.8632 9.39862 25.0625 7.98292 22.0918 7.88219C21.942 7.87618 21.8059 7.8126 21.7208 7.72524C21.6222 7.61244 21.5719 7.47364 21.577 7.34137L21.0774 7.32215ZM21.0774 7.32215C21.0986 6.7817 21.5437 6.31543 22.0629 6.31543H22.1371H22.1477L21.3529 8.06394C21.1728 7.8626 21.0668 7.59767 21.0774 7.32215Z" fill="#272721" stroke="#272721"/>
<path d="M21.8475 12.3471L21.8475 12.3471L21.8436 12.3467C21.548 12.3138 21.3312 12.0443 21.3631 11.7459C21.3978 11.4661 21.6313 11.2666 21.8944 11.2666L21.918 11.2667L21.9313 11.27L21.963 11.2738C26.3275 11.7878 29.8063 15.5287 29.7766 19.5372L29.7766 19.5372V19.541C29.7766 19.8231 29.5375 20.0689 29.2381 20.0689H29.2275C28.9452 20.0689 28.7007 19.8303 28.6996 19.5218C28.7326 15.965 25.6199 12.7962 21.8475 12.3471ZM21.9268 11.267C21.9268 11.267 21.9268 11.267 21.9267 11.267L21.9268 11.267Z" fill="#272721" stroke="#272721"/>
<path d="M32.7296 26.2873L32.7296 26.2874L32.7339 26.2906C33.2732 26.6896 33.855 27.1321 34.218 27.7268C34.559 28.2855 34.7244 29.0102 34.3429 30.0383L34.3414 30.0423C33.9926 31.0075 33.1943 32.0663 32.1562 32.8848C31.1181 33.7032 29.8968 34.2372 28.7289 34.2372C28.6512 34.2372 28.588 34.2289 28.5535 34.2203L28.5489 34.2192L28.284 34.1556L28.2809 34.1549C28.2663 34.1515 28.2515 34.148 28.2365 34.1445C27.9151 34.0697 27.5039 33.974 27.1244 33.8113L27.1217 33.8102C17.8364 29.8951 11.271 23.4178 7.60457 14.5807L7.60454 14.5806C6.94795 12.9988 6.93469 11.5039 7.5123 10.2442C8.12003 8.92458 9.33925 7.90185 11.1256 7.30974L11.1256 7.30982L11.134 7.30686C11.4712 7.18841 11.8177 7.13379 12.1446 7.13379C12.4748 7.13379 12.8201 7.19651 13.151 7.31601L13.151 7.31601L13.153 7.31673C13.466 7.42824 13.9486 7.78048 14.5302 8.35133C15.0949 8.90567 15.7026 9.61538 16.2653 10.3669C16.828 11.1184 17.3374 11.9009 17.7095 12.598C18.0929 13.316 18.2933 13.8763 18.3108 14.2055L18.3109 14.2066C18.389 15.6135 17.3726 16.3165 16.6768 16.784L16.6767 16.7841C16.3302 17.017 15.9778 17.3152 15.8321 17.7792C15.6866 18.2429 15.7837 18.7523 16.03 19.3252L16.0433 19.3561L16.0606 19.385L16.0924 19.4379L16.1011 19.4525L16.1108 19.4664L18.4421 22.8151L18.4675 22.8515L18.4989 22.8829L18.5413 22.9253L18.5412 22.9255L18.5512 22.9349C19.5824 23.9107 20.8293 24.7254 22.2755 25.3609L22.2797 25.3627C22.6035 25.5014 22.9195 25.5939 23.2185 25.5939C23.5561 25.5939 23.8223 25.4855 24.0262 25.3269C24.2132 25.1814 24.3308 25.005 24.3945 24.9094L24.3949 24.9087C24.3953 24.9081 24.3958 24.9075 24.3962 24.9069C25.0613 23.9295 25.8241 23.395 26.6433 23.2338C26.8244 23.2055 26.9958 23.1883 27.1712 23.1883C27.9297 23.1883 28.7962 23.4872 29.7374 24.1381L29.7381 24.1386L30.215 24.4671L30.215 24.4671L30.2198 24.4704C30.8954 24.9243 31.6347 25.4348 32.3291 25.9841L32.329 25.9841L32.3375 25.9906L32.7296 26.2873ZM16.9556 17.1991L16.9631 17.194C17.6432 16.7371 18.9051 15.8893 18.8101 14.1789C18.7147 12.388 15.0164 7.44976 13.3208 6.84573C12.9393 6.70797 12.5366 6.63379 12.1446 6.63379C11.7631 6.63379 11.3604 6.69737 10.9683 6.83513L16.9556 17.1991ZM33.3427 29.6827L33.3442 29.6783C33.4249 29.4482 33.4823 29.2149 33.4805 28.9776C33.4787 28.7283 33.412 28.5017 33.2852 28.288C33.0579 27.9051 32.6252 27.5577 32.0861 27.1457C32.0856 27.1453 32.085 27.1449 32.0845 27.1445L31.9951 27.075C31.9383 27.0296 31.8798 26.985 31.8264 26.9444L31.8243 26.9427C31.7678 26.8997 31.7169 26.8609 31.6694 26.8228L31.667 26.821C31.0009 26.2945 30.2945 25.8124 29.6353 25.3624L29.6166 25.3497L29.6148 25.3485L29.1398 25.0212L29.1397 25.0211C28.461 24.5539 27.7974 24.2653 27.1924 24.2653C27.0717 24.2653 26.9675 24.2803 26.8961 24.2905L26.8885 24.2916L26.8748 24.2935L26.8612 24.2963C26.2468 24.4191 25.7365 24.8877 25.3151 25.5142L25.73 25.7933L25.3154 25.5137C24.7809 26.3064 24.0795 26.6921 23.2715 26.6921C22.8354 26.6921 22.3652 26.5855 21.8564 26.3551L21.8537 26.3539C20.2394 25.6342 18.8495 24.7129 17.7094 23.6145C17.6921 23.5969 17.67 23.5703 17.6312 23.5219L15.1394 19.9742L15.1304 19.9614L15.1207 19.9493C15.1034 19.9276 15.099 19.9167 15.0991 19.917L15.095 19.9066L15.0904 19.8965C14.5778 18.7639 14.6043 17.9331 14.834 17.322C15.069 16.6966 15.5457 16.2249 16.0673 15.8772L16.0687 15.8762C16.4424 15.6253 16.7386 15.3981 16.9339 15.1521C17.152 14.8775 17.236 14.5916 17.2225 14.2732V14.2531V14.2129L17.2161 14.1732C17.1825 13.9661 17.0944 13.7345 16.9895 13.508C16.8811 13.274 16.7394 13.0135 16.5768 12.7405C16.2512 12.1942 15.8279 11.5755 15.3816 10.9816C14.9354 10.3876 14.4596 9.80984 14.0268 9.34705C13.8106 9.11584 13.6005 8.90841 13.4067 8.74046C13.2221 8.58048 13.027 8.43393 12.8392 8.34544L12.8238 8.33778L12.7968 8.32428L12.7684 8.31412C12.5838 8.24819 12.3876 8.20021 12.1552 8.20021C11.9292 8.20021 11.7054 8.24546 11.4789 8.32087C10.0782 8.78401 9.02199 9.58849 8.51222 10.6826L8.51218 10.6826L8.50969 10.6882C8.04686 11.7139 8.10482 12.9325 8.6206 14.1596C12.1817 22.7441 18.566 29.0143 27.5594 32.8134L27.5594 32.8135L27.5654 32.8159C27.8812 32.9445 28.2334 33.0257 28.4957 33.0861C28.5079 33.0889 28.5199 33.0916 28.5317 33.0944L28.5872 33.1072H28.6025C28.6082 33.1084 28.6142 33.1098 28.6205 33.1112L28.622 33.1115C28.6451 33.1166 28.6733 33.1229 28.7051 33.1292L28.7187 33.132L28.7324 33.1339L28.8066 33.1445L28.8558 33.1516L28.9054 33.1488C29.7964 33.0986 30.7535 32.6339 31.5414 32.0148C32.3325 31.3932 33.0263 30.5589 33.3427 29.6827Z" fill="#272721" stroke="#272721"/>
<path d="M10.862 0.5H30.138C35.7427 0.5 40.4899 5.24586 40.5 10.8629V30.138C40.5 35.7535 35.7436 40.5 30.138 40.5H10.862C5.24648 40.5 0.5 35.7436 0.5 30.138V10.862C0.5 5.24616 5.24616 0.5 10.862 0.5ZM30.138 39.4124C35.1722 39.4124 39.4124 35.1722 39.4124 30.138V10.862C39.4124 5.82776 35.1722 1.58762 30.138 1.58762H10.862C5.82776 1.58762 1.58762 5.82776 1.58762 10.862V30.138C1.58762 35.1722 5.82776 39.4124 10.862 39.4124H30.138Z" fill="#272721" stroke="#272721"/>
</svg>
